<?xml version="1.0" encoding="UTF-8" standalone="no"?>
<!-- Created with Inkscape (http://www.inkscape.org/) -->

<svg
   xmlns:dc="http://purl.org/dc/elements/1.1/"
   xmlns:cc="http://creativecommons.org/ns#"
   xmlns:rdf="http://www.w3.org/1999/02/22-rdf-syntax-ns#"
   xmlns:svg="http://www.w3.org/2000/svg"
   xmlns="http://www.w3.org/2000/svg"
   xmlns:sodipodi="http://sodipodi.sourceforge.net/DTD/sodipodi-0.dtd"
   xmlns:inkscape="http://www.inkscape.org/namespaces/inkscape"
   height="11.173134mm"
   width="48.655773mm"
   viewBox="0 0 172.40235 39.589844"
   id="framingoLogoText"
   version="1.1"
   inkscape:version="0.91 r13725"
   sodipodi:docname="logo-text.svg">
  <defs
     id="defs8" />
  <sodipodi:namedview
     pagecolor="#ffffff"
     bordercolor="#666666"
     borderopacity="1"
     objecttolerance="10"
     gridtolerance="10"
     guidetolerance="10"
     inkscape:pageopacity="0"
     inkscape:pageshadow="2"
     inkscape:window-width="1731"
     inkscape:window-height="840"
     id="namedview6"
     showgrid="false"
     fit-margin-top="0"
     fit-margin-left="0"
     fit-margin-right="0"
     fit-margin-bottom="0"
     inkscape:zoom="1.2685914"
     inkscape:cx="363.19531"
     inkscape:cy="-37.528569"
     inkscape:window-x="10"
     inkscape:window-y="28"
     inkscape:window-maximized="0"
     inkscape:current-layer="text3140" />
  <g
     style="font-style:normal;font-weight:normal;font-size:40px;line-height:125%;font-family:sans-serif;letter-spacing:0px;word-spacing:0px;fill:#666666;fill-opacity:1;stroke:none;stroke-width:1px;stroke-linecap:butt;stroke-linejoin:miter;stroke-opacity:1"
     id="text3140">
    <path
       d="m 1.6601562,29.414062 0,-18.066406 -1.6601562,0 0,-1.738281 1.6601562,0 0,-1.7578125 q 0,-3.2421875 2.1093751,-5.546875 Q 5.8984375,0 8.8867188,0 l 0,1.1328125 q -2.1875001,0 -3.8476563,2.0703125 -1.6601562,2.0507812 -1.6601562,4.6484375 l 0,1.7578125 5.5078125,0 -0.5859375,1.738281 -4.921875,0 0,18.066406 -1.7187501,0 z"
       style="font-style:normal;font-variant:normal;font-weight:normal;font-stretch:normal;font-family:Sawasdee;-inkscape-font-specification:Sawasdee"
       id="path3141" />
    <path
       d="m 11.640625,9.609375 1.875,0 q 0.371094,1.289063 0.371094,2.617188 l 0,2.460937 q 0.449219,-1.503906 2.089844,-3.125 1.640624,-1.6210937 3.300781,-2.265625 l 1.953125,1.386719 q -1.71875,0 -3.4375,1.210937 -1.699219,1.210938 -2.8125,3.222657 -1.09375,1.992187 -1.09375,4.121093 l 0,10.175781 -1.757813,0 0,-17.187499 q 0,-1.679688 -0.488281,-2.617188 z"
       style="font-style:normal;font-variant:normal;font-weight:normal;font-stretch:normal;font-family:Sawasdee;-inkscape-font-specification:Sawasdee"
       id="path3143" />
    <path
       d="m 39.472656,29.414062 -1.875,0 q -0.351562,-1.113281 -0.351562,-2.617187 l 0,-1.542969 q -1.40625,1.953125 -3.378907,3.222656 -1.953125,1.269532 -4.140625,1.269532 -1.582031,0 -2.832031,-0.488282 -1.230469,-0.507812 -1.953125,-1.328125 -0.722656,-0.820312 -1.09375,-1.738281 -0.371094,-0.9375 -0.371094,-1.894531 0,-0.996094 0.292969,-1.835938 0.3125,-0.839843 0.78125,-1.425781 0.488281,-0.605469 1.269531,-1.074219 0.800782,-0.488281 1.523438,-0.78125 0.742187,-0.3125 1.835937,-0.527343 1.09375,-0.234375 1.894532,-0.332032 0.800781,-0.117187 1.992187,-0.175781 1.191406,-0.05859 1.875,-0.05859 0.703125,-0.01953 1.777344,-0.01953 l 0.527344,0 q -0.09766,-3.222656 -1.914063,-5.136718 -1.796875,-1.914063 -4.160156,-1.914063 -1.386719,0 -2.714844,0.722656 -1.308594,0.722657 -2.285156,2.109375 l -1.386719,-0.917968 q 1.191406,-1.835938 2.871094,-2.753907 1.679687,-0.9179685 3.515625,-0.9179685 1.484375,0 2.851562,0.6054688 1.386719,0.5859377 2.480469,1.6796877 1.09375,1.074219 1.757813,2.773437 0.683593,1.699219 0.722656,3.75 l 0,8.730469 q 0,1.699219 0.488281,2.617187 z m -9.746094,-1.40625 q 2.246094,0 4.355469,-1.503906 Q 36.191406,25 37.246094,23.066406 l 0,-3.75 q -0.917969,0.01953 -1.542969,0.03906 -0.605469,0.01953 -1.679688,0.09766 -1.054687,0.05859 -1.796875,0.15625 -0.742187,0.07813 -1.738281,0.273437 -0.976562,0.195313 -1.660156,0.449219 -0.683594,0.234375 -1.425781,0.625 -0.722657,0.371094 -1.171875,0.839844 -0.449219,0.449219 -0.742188,1.09375 -0.273437,0.644531 -0.273437,1.40625 0,1.40625 1.171875,2.558594 1.171875,1.152343 3.339843,1.152343 z"
       style="font-style:normal;font-variant:normal;font-weight:normal;font-stretch:normal;font-family:Sawasdee;-inkscape-font-specification:Sawasdee"
       id="path3145" />
    <path
       d="m 45,9.609375 1.875,0 q 0.371094,1.289063 0.371094,2.617188 l 0,2.851562 q 0.9375,-2.304687 2.695312,-4.042969 1.757813,-1.738281 3.320313,-1.738281 2.324218,0 3.730468,1.621094 1.40625,1.601562 1.777344,4.160156 0.976563,-2.382812 2.617188,-4.042969 1.660156,-1.6796872 3.261718,-1.6796872 1.835938,0 3.105469,1.1523442 1.289063,1.132812 1.835938,2.871093 0.566406,1.71875 0.566406,3.847656 l 0,12.1875 -1.757813,0 0,-12.1875 q 0,-1.054687 -0.175781,-2.050781 -0.175781,-0.996093 -0.585937,-1.953125 -0.390625,-0.957031 -1.171875,-1.542968 -0.78125,-0.585938 -1.855469,-0.585938 -1.308594,0 -2.734375,1.484375 -1.425781,1.464844 -2.324219,3.457031 -0.898437,1.992188 -0.898437,3.535156 l 0,9.84375 -1.757813,0 0,-12.226562 q 0,-1.074219 -0.175781,-2.070312 -0.175781,-0.996094 -0.566406,-1.953125 -0.390625,-0.957032 -1.191407,-1.523438 -0.78125,-0.585937 -1.875,-0.585937 -1.210937,0 -2.617187,1.40625 -1.386719,1.40625 -2.304688,3.398437 -0.917968,1.992187 -0.917968,3.632812 l 0,9.921875 -1.757813,0 0,-17.187499 q 0,-1.679688 -0.488281,-2.617188 z"
       style="font-style:normal;font-variant:normal;font-weight:normal;font-stretch:normal;font-family:Sawasdee;-inkscape-font-specification:Sawasdee"
       id="path3147" />
    <path
       d="m 77.714844,17.832031 14.394531,0 Q 91.5625,14.882813 89.53125,12.96875 87.5,11.054688 84.882812,11.054688 q -2.597656,0 -4.628906,1.914062 -2.011719,1.914063 -2.539062,4.863281 z m 16.308593,1.660156 -16.582031,0 q 0,3.496094 2.1875,5.9375 2.1875,2.441407 5.175781,2.441407 1.972657,0 3.867188,-1.054688 1.894531,-1.054687 2.890625,-2.832031 l 1.542969,0.878906 q -1.191407,2.128906 -3.515625,3.496094 -2.324219,1.347656 -4.785157,1.347656 -2.480468,0 -4.570312,-1.386719 -2.070313,-1.386718 -3.261719,-3.730468 -1.171875,-2.363282 -1.171875,-5.097657 0,-2.714843 1.191406,-5.058593 1.210938,-2.34375 3.300782,-3.730469 2.109375,-1.40625 4.589843,-1.40625 2.34375,0 4.355469,1.269531 2.03125,1.25 3.28125,3.378907 1.25,2.128906 1.464844,4.667968 l 0.03906,0.878906 z"
       style="font-style:normal;font-variant:normal;font-weight:normal;font-stretch:normal;font-family:Sawasdee;-inkscape-font-specification:Sawasdee"
       id="path3149" />
    <path
       d="m 100.68359,3.1445313 q 0.91797,0 1.5625,0.625 0.66407,0.6249999 0.66407,1.5234374 0,0.8789063 -0.66407,1.484375 -0.64453,0.6054688 -1.5625,0.6054688 -0.957028,0 -1.601559,-0.6054688 Q 98.4375,6.171875 98.4375,5.2929687 q 0,-0.8984375 0.644531,-1.5234374 0.664063,-0.625 1.601559,-0.625 z m 1.50391,26.2695307 -3.085938,0 0,-19.804687 3.085938,0 0,19.804687 z"
       style="font-style:normal;font-variant:normal;font-weight:bold;font-stretch:normal;font-family:Sawasdee;-inkscape-font-specification:'Sawasdee Bold';fill:#0505c3"
       id="path3151" />
    <path
       d="m 110.19531,9.5703125 q 0.33203,1.0742185 0.41016,1.7187505 0.0977,0.644531 0.0977,2.109375 1.11328,-1.679688 2.7539,-2.890625 1.64063,-1.210938 3.16406,-1.210938 1.64063,0 2.92969,0.6640625 1.28906,0.6445315 2.07031,1.7773435 0.78125,1.132813 1.17188,2.558594 0.39062,1.40625 0.39062,3.007812 l 0,12.109375 -3.10546,0 0,-12.109375 q 0,-0.898437 -0.17579,-1.718749 -0.15625,-0.820313 -0.52734,-1.601563 -0.37109,-0.800781 -1.09375,-1.269531 -0.72266,-0.488281 -1.73828,-0.488281 -1.26953,0 -2.67578,1.328125 -1.40625,1.308593 -2.28516,3.027343 -0.8789,1.699219 -0.8789,2.910156 l 0,9.921875 -3.08594,0 0,-13.984374 q 0,-1.503907 -0.25391,-3.339844 -0.23437,-1.855469 -0.625,-2.5195315 l 3.45703,0 z"
       style="font-style:normal;font-variant:normal;font-weight:bold;font-stretch:normal;font-family:Sawasdee;-inkscape-font-specification:'Sawasdee Bold';fill:#0505c3"
       id="path3153" />
    <path
       d="m 145.05859,9.609375 1.875,0 q -0.46875,0.898438 -0.46875,2.617188 l 0,17.187499 q 0,2.734375 -1.23047,5.078125 -1.21093,2.34375 -3.32031,3.710938 -2.10937,1.386719 -4.60937,1.386719 -3.4375,0 -5.97657,-2.539063 l 1.26954,-1.210937 q 2.07031,2.011718 4.78515,2.011718 3.00781,0 5.17578,-2.460937 2.16797,-2.460938 2.16797,-5.976563 l 0,-5.078125 q -0.72265,2.128907 -2.91015,3.75 -2.16797,1.621094 -4.4336,1.621094 -2.48047,0 -4.57031,-1.386719 -2.07031,-1.386718 -3.26172,-3.730468 -1.17187,-2.363282 -1.17187,-5.097657 0,-2.734375 1.17187,-5.058593 1.19141,-2.34375 3.26172,-3.730469 2.08984,-1.40625 4.57031,-1.40625 2.22656,0 4.41406,1.679688 2.1875,1.660156 2.92969,3.710937 l 0,-2.460937 q 0,-1.464844 0.33203,-2.617188 z m -0.44922,9.882812 q 0,-3.515624 -2.1875,-5.976562 -2.16796,-2.460937 -5.15625,-2.460937 -3.00781,0 -5.17578,2.460937 -2.16797,2.460938 -2.16797,5.976562 0,3.515625 2.16797,5.996094 2.1875,2.480469 5.17578,2.480469 2.98829,0 5.15625,-2.480469 2.1875,-2.5 2.1875,-5.996094 z"
       style="font-style:normal;font-variant:normal;font-weight:normal;font-stretch:normal;font-family:Sawasdee;-inkscape-font-specification:Sawasdee"
       id="path3155" />
    <path
       d="m 162.26562,9.296875 q 2.05079,0 3.92579,0.800781 1.875,0.800782 3.24218,2.167969 1.36719,1.367188 2.16797,3.261719 0.80078,1.894531 0.80078,3.964843 0,2.089844 -0.80078,3.984375 -0.80078,1.894532 -2.16797,3.261719 -1.36718,1.347656 -3.24218,2.167969 -1.875,0.800781 -3.92579,0.800781 -4.19921,0 -7.16796,-2.988281 -2.96875,-2.988281 -2.96875,-7.226563 0,-2.773437 1.34765,-5.117187 1.36719,-2.363281 3.69141,-3.710937 2.34375,-1.367188 5.09765,-1.367188 z m -8.39843,10.195312 q 0,3.496094 2.46093,5.996094 2.48047,2.480469 5.97657,2.480469 3.49609,0 5.95703,-2.480469 2.48047,-2.5 2.48047,-5.996094 0,-3.476562 -2.48047,-5.957031 -2.46094,-2.480468 -5.95703,-2.480468 -3.4961,0 -5.97657,2.480468 -2.46093,2.480469 -2.46093,5.957031 z"
       style="font-style:normal;font-variant:normal;font-weight:normal;font-stretch:normal;font-family:Sawasdee;-inkscape-font-specification:Sawasdee"
       id="path3157" />
  </g>
</svg>
